<svg width="30" height="21" viewBox="0 0 30 21" fill="none" xmlns="http://www.w3.org/2000/svg">
<path d="M0 3.83333C0 1.99479 1.49479 0.5 3.33333 0.5H16.6667C18.5052 0.5 20 1.99479 20 3.83333V17.1667C20 19.0052 18.5052 20.5 16.6667 20.5H3.33333C1.49479 20.5 0 19.0052 0 17.1667V3.83333ZM29.1198 2.36458C29.6615 2.65625 30 3.21875 30 3.83333V17.1667C30 17.7813 29.6615 18.3438 29.1198 18.6354C28.5781 18.9271 27.9219 18.8958 27.4062 18.5521L22.4062 15.2188L21.6667 14.724V6.27604L22.4062 5.78125L27.4062 2.44792C27.9167 2.10938 28.5729 2.07292 29.1198 2.36458Z" fill="white"/>
</svg>
