<svg width="40" height="40" viewBox="0 0 40 40" fill="none" xmlns="http://www.w3.org/2000/svg">
<path fill-rule="evenodd" clip-rule="evenodd" d="M25.3027 11.6853C23.6745 10.5865 21.7602 10 19.802 10V0C23.7184 0 27.5469 1.17298 30.8034 3.37061C34.0598 5.56823 36.5978 8.69181 38.0966 12.3463C39.5953 16.0008 39.9875 20.0222 39.2235 23.9018C38.4594 27.7814 36.5735 31.3451 33.8041 34.1421C31.0348 36.9392 27.5063 38.844 23.6651 39.6157C19.824 40.3874 15.8424 39.9913 12.2241 38.4776C8.60574 36.9638 5.5131 34.4004 3.33724 31.1114C1.16137 27.8224 0 23.9556 0 20H9.90099C9.90099 21.9778 10.4817 23.9112 11.5696 25.5557C12.6575 27.2002 14.2039 28.4819 16.0131 29.2388C17.8222 29.9957 19.813 30.1937 21.7336 29.8078C23.6542 29.422 25.4183 28.4696 26.8031 27.0711C28.1877 25.6725 29.1307 23.8907 29.5127 21.9509C29.8948 20.0111 29.6987 18.0004 28.9493 16.1732C28.1999 14.3459 26.9309 12.7841 25.3027 11.6853Z" fill="#32D116"/>
<path fill-rule="evenodd" clip-rule="evenodd" d="M9.90099 5.28493e-06C9.90099 1.31322 9.6449 2.61358 9.14732 3.82684C8.64975 5.04009 7.92045 6.14248 7.00105 7.07107C6.08167 7.99966 4.99019 8.73625 3.78894 9.2388C2.5877 9.74134 1.30021 10 4.32782e-07 10L0 20C2.60043 20 5.1754 19.4827 7.5779 18.4776C9.98039 17.4725 12.1634 15.9993 14.0021 14.1421C15.8409 12.285 17.2995 10.0802 18.2946 7.65367C19.2898 5.22715 19.802 2.62643 19.802 0L9.90099 5.28493e-06Z" fill="#32D116"/>
</svg>
